<?xml version="1.0" standalone="no"?><svg xmlns:xlink="http://www.w3.org/1999/xlink" xmlns="http://www.w3.org/2000/svg" viewBox="0 0 1000 714.2857142857143" preserveAspectRatio="xMaxYMax slice"><g transform="scale(1.3683634373289546)"><rect x="0" y="0" width="730.8000000000001" height="522" fill="#ffffff"/><rect x="114.84" y="10.440000000000001" width="83.52000000000001" height="83.52000000000001" fill="#ffffff"/><g transform="translate(156.6,10.44) scale(2.088) rotate(0)"><rect width="20" height="2" fill="#fffeff"/><rect y="4" width="20" height="2" fill="#fffeff"/><rect y="8" width="20" height="2" fill="#fffeff"/><rect y="12" width="20" height="2" fill="#fffeff"/><rect y="16" width="20" height="2" fill="#fffeff"/></g><g transform="translate(156.6,52.2) scale(2.088) rotate(0)"><rect width="20" height="10" fill="#ff507a"/></g><rect x="219.24" y="10.440000000000001" width="83.52000000000001" height="83.52000000000001" fill="#ffffff"/><g transform="translate(261,10.44) scale(2.088) rotate(0)"><rect width="20" height="10" fill="#7990ee"/></g><g transform="translate(219.24,52.2) scale(2.088) rotate(0)"><rect width="20" height="2" fill="#ff5c83"/><rect y="4" width="20" height="2" fill="#ff5c83"/><rect y="8" width="20" height="2" fill="#ff5c83"/><rect y="12" width="20" height="2" fill="#ff5c83"/><rect y="16" width="20" height="2" fill="#ff5c83"/></g><g transform="translate(261,52.2) scale(2.088) rotate(0)"><path d="M10 0H20L0 20V10L10 0Z" fill="#6c85ec"/><path d="M20 10V20H10L20 10Z" fill="#6c85ec"/></g><rect x="428.04" y="10.440000000000001" width="83.52000000000001" height="83.52000000000001" fill="#ffffff"/><g transform="translate(428.04,10.44) scale(2.088) rotate(0)"><rect width="20" height="10" fill="#ffdae3"/></g><g transform="translate(469.8,10.44) scale(2.088) rotate(0)"><path d="M10 0H20L0 20V10L10 0Z" fill="#ff3968"/><path d="M20 10V20H10L20 10Z" fill="#ff3968"/></g><g transform="translate(469.8,52.2) scale(2.088) rotate(0)"><path d="M10 0H20L0 20V10L10 0Z" fill="#879bef"/><path d="M20 10V20H10L20 10Z" fill="#879bef"/></g><rect x="636.8400000000001" y="10.440000000000001" width="83.52000000000001" height="83.52000000000001" fill="#ffffff"/><g transform="translate(636.84,52.2) scale(2.088) rotate(0)"><rect width="20" height="2" fill="#ff7696"/><rect y="4" width="20" height="2" fill="#ff7696"/><rect y="8" width="20" height="2" fill="#ff7696"/><rect y="12" width="20" height="2" fill="#ff7696"/><rect y="16" width="20" height="2" fill="#ff7696"/></g><g transform="translate(678.6,52.2) scale(2.088) rotate(0)"><rect width="20" height="10" fill="#b9c5f6"/></g><rect x="10.440000000000001" y="114.84" width="83.52000000000001" height="83.52000000000001" fill="#ffffff"/><g transform="translate(10.44,114.84) scale(2.088) rotate(0)"><rect width="20" height="2" fill="#ff3665"/><rect y="4" width="20" height="2" fill="#ff3665"/><rect y="8" width="20" height="2" fill="#ff3665"/><rect y="12" width="20" height="2" fill="#ff3665"/><rect y="16" width="20" height="2" fill="#ff3665"/></g><g transform="translate(52.2,114.84) scale(2.088) rotate(0)"><rect width="20" height="2" fill="#ff4e78"/><rect y="4" width="20" height="2" fill="#ff4e78"/><rect y="8" width="20" height="2" fill="#ff4e78"/><rect y="12" width="20" height="2" fill="#ff4e78"/><rect y="16" width="20" height="2" fill="#ff4e78"/></g><g transform="translate(10.44,156.6) scale(2.088) rotate(0)"><path d="M10 0H20L0 20V10L10 0Z" fill="#cfd7f9"/><path d="M20 10V20H10L20 10Z" fill="#cfd7f9"/></g><g transform="translate(52.2,156.6) scale(2.088) rotate(0)"><rect width="20" height="10" fill="#98aaf2"/></g><rect x="323.64000000000004" y="114.84" width="83.52000000000001" height="83.52000000000001" fill="#ffffff"/><g transform="translate(365.4,114.84) scale(2.088) rotate(0)"><path d="M10 0H20L0 20V10L10 0Z" fill="#ebeefc"/><path d="M20 10V20H10L20 10Z" fill="#ebeefc"/></g><rect x="428.04" y="114.84" width="83.52000000000001" height="83.52000000000001" fill="#ffffff"/><g transform="translate(428.04,114.84) scale(2.088) rotate(0)"><rect width="20" height="2" fill="#506ee8"/><rect y="4" width="20" height="2" fill="#506ee8"/><rect y="8" width="20" height="2" fill="#506ee8"/><rect y="12" width="20" height="2" fill="#506ee8"/><rect y="16" width="20" height="2" fill="#506ee8"/></g><g transform="translate(469.8,114.84) scale(2.088) rotate(0)"><path d="M10 0H20L0 20V10L10 0Z" fill="#bac6f6"/><path d="M20 10V20H10L20 10Z" fill="#bac6f6"/></g><g transform="translate(428.04,156.6) scale(2.088) rotate(0)"><path d="M10 0H20L0 20V10L10 0Z" fill="#7189ed"/><path d="M20 10V20H10L20 10Z" fill="#7189ed"/></g><g transform="translate(469.8,156.6) scale(2.088) rotate(0)"><rect width="20" height="2" fill="#e1e6fb"/><rect y="4" width="20" height="2" fill="#e1e6fb"/><rect y="8" width="20" height="2" fill="#e1e6fb"/><rect y="12" width="20" height="2" fill="#e1e6fb"/><rect y="16" width="20" height="2" fill="#e1e6fb"/></g><rect x="532.44" y="114.84" width="83.52000000000001" height="83.52000000000001" fill="#ffffff"/><g transform="translate(532.44,114.84) scale(2.088) rotate(0)"><path d="M10 0H20L0 20V10L10 0Z" fill="#ffe5eb"/><path d="M20 10V20H10L20 10Z" fill="#ffe5eb"/></g><g transform="translate(574.2,114.84) scale(2.088) rotate(0)"><rect width="20" height="10" fill="#ff7596"/></g><g transform="translate(532.44,156.6) scale(2.088) rotate(0)"><rect width="20" height="10" fill="#ff688c"/></g><g transform="translate(574.2,156.6) scale(2.088) rotate(0)"><path d="M10 0H20L0 20V10L10 0Z" fill="#ffedf1"/><path d="M20 10V20H10L20 10Z" fill="#ffedf1"/></g><rect x="636.8400000000001" y="114.84" width="83.52000000000001" height="83.52000000000001" fill="#ffffff"/><g transform="translate(636.84,114.84) scale(2.088) rotate(0)"><path d="M10 0H20L0 20V10L10 0Z" fill="#ff7394"/><path d="M20 10V20H10L20 10Z" fill="#ff7394"/></g><g transform="translate(678.6,114.84) scale(2.088) rotate(0)"><rect width="20" height="2" fill="#2348e2"/><rect y="4" width="20" height="2" fill="#2348e2"/><rect y="8" width="20" height="2" fill="#2348e2"/><rect y="12" width="20" height="2" fill="#2348e2"/><rect y="16" width="20" height="2" fill="#2348e2"/></g><rect x="219.24" y="219.24" width="83.52000000000001" height="83.52000000000001" fill="#ffffff"/><g transform="translate(219.24,219.24) scale(2.088) rotate(0)"><rect width="20" height="10" fill="#ffaabe"/></g><g transform="translate(261,219.24) scale(2.088) rotate(0)"><rect width="20" height="2" fill="#ff7394"/><rect y="4" width="20" height="2" fill="#ff7394"/><rect y="8" width="20" height="2" fill="#ff7394"/><rect y="12" width="20" height="2" fill="#ff7394"/><rect y="16" width="20" height="2" fill="#ff7394"/></g><g transform="translate(219.24,261) scale(2.088) rotate(0)"><path d="M10 0H20L0 20V10L10 0Z" fill="#ffd1dc"/><path d="M20 10V20H10L20 10Z" fill="#ffd1dc"/></g><g transform="translate(261,261) scale(2.088) rotate(0)"><path d="M10 0H20L0 20V10L10 0Z" fill="#264be3"/><path d="M20 10V20H10L20 10Z" fill="#264be3"/></g><rect x="428.04" y="219.24" width="83.52000000000001" height="83.52000000000001" fill="#ffffff"/><g transform="translate(428.04,219.24) scale(2.088) rotate(0)"><path d="M5 0H10L5 5L0 10V5L5 0Z" fill="#91a4f1"/><path d="M20 15V20H15L20 15Z" fill="#91a4f1"/><path d="M20 5V10L15 15L10 20H5L20 5Z" fill="#91a4f1"/><path d="M15 0H20L5 15.0002L0 20.0002V15.0002L15 0Z" fill="#91a4f1"/></g><g transform="translate(469.8,219.24) scale(2.088) rotate(0)"><rect width="20" height="10" fill="#ff3565"/></g><g transform="translate(428.04,261) scale(2.088) rotate(0)"><rect width="20" height="10" fill="#2146e2"/></g><rect x="532.44" y="219.24" width="83.52000000000001" height="83.52000000000001" fill="#ffffff"/><g transform="translate(532.44,219.24) scale(2.088) rotate(0)"><rect width="20" height="2" fill="#e6ebfc"/><rect y="4" width="20" height="2" fill="#e6ebfc"/><rect y="8" width="20" height="2" fill="#e6ebfc"/><rect y="12" width="20" height="2" fill="#e6ebfc"/><rect y="16" width="20" height="2" fill="#e6ebfc"/></g><g transform="translate(532.44,261) scale(2.088) rotate(0)"><path d="M10 0H20L0 20V10L10 0Z" fill="#ff4a75"/><path d="M20 10V20H10L20 10Z" fill="#ff4a75"/></g><rect x="114.84" y="323.64000000000004" width="83.52000000000001" height="83.52000000000001" fill="#ffffff"/><g transform="translate(114.84,323.64) scale(2.088) rotate(0)"><rect width="20" height="2" fill="#fff2f5"/><rect y="4" width="20" height="2" fill="#fff2f5"/><rect y="8" width="20" height="2" fill="#fff2f5"/><rect y="12" width="20" height="2" fill="#fff2f5"/><rect y="16" width="20" height="2" fill="#fff2f5"/></g><g transform="translate(114.84,365.4) scale(2.088) rotate(0)"><path d="M10 0H20L0 20V10L10 0Z" fill="#eef1fd"/><path d="M20 10V20H10L20 10Z" fill="#eef1fd"/></g><rect x="323.64000000000004" y="323.64000000000004" width="83.52000000000001" height="83.52000000000001" fill="#ffffff"/><g transform="translate(365.4,323.64) scale(2.088) rotate(0)"><path d="M5 0H10L5 5L0 10V5L5 0Z" fill="#ffe1e8"/><path d="M20 15V20H15L20 15Z" fill="#ffe1e8"/><path d="M20 5V10L15 15L10 20H5L20 5Z" fill="#ffe1e8"/><path d="M15 0H20L5 15.0002L0 20.0002V15.0002L15 0Z" fill="#ffe1e8"/></g><g transform="translate(323.64,365.4) scale(2.088) rotate(0)"><rect width="20" height="10" fill="#ffe2e9"/></g><rect x="428.04" y="323.64000000000004" width="83.52000000000001" height="83.52000000000001" fill="#ffffff"/><g transform="translate(428.04,323.64) scale(2.088) rotate(0)"><path d="M10 0H20L0 20V10L10 0Z" fill="#2d51e4"/><path d="M20 10V20H10L20 10Z" fill="#2d51e4"/></g><g transform="translate(469.8,323.64) scale(2.088) rotate(0)"><rect width="20" height="10" fill="#5e79ea"/></g><rect x="532.44" y="323.64000000000004" width="83.52000000000001" height="83.52000000000001" fill="#ffffff"/><g transform="translate(532.44,323.64) scale(2.088) rotate(0)"><rect width="20" height="10" fill="#ff9cb4"/></g><g transform="translate(574.2,323.64) scale(2.088) rotate(0)"><path d="M5 0H10L5 5L0 10V5L5 0Z" fill="#869aef"/><path d="M20 15V20H15L20 15Z" fill="#869aef"/><path d="M20 5V10L15 15L10 20H5L20 5Z" fill="#869aef"/><path d="M15 0H20L5 15.0002L0 20.0002V15.0002L15 0Z" fill="#869aef"/></g><rect x="636.8400000000001" y="323.64000000000004" width="83.52000000000001" height="83.52000000000001" fill="#ffffff"/><g transform="translate(636.84,323.64) scale(2.088) rotate(0)"><rect width="20" height="2" fill="#c4cef7"/><rect y="4" width="20" height="2" fill="#c4cef7"/><rect y="8" width="20" height="2" fill="#c4cef7"/><rect y="12" width="20" height="2" fill="#c4cef7"/><rect y="16" width="20" height="2" fill="#c4cef7"/></g><g transform="translate(678.6,323.64) scale(2.088) rotate(0)"><path d="M5 0H10L5 5L0 10V5L5 0Z" fill="#ff6f91"/><path d="M20 15V20H15L20 15Z" fill="#ff6f91"/><path d="M20 5V10L15 15L10 20H5L20 5Z" fill="#ff6f91"/><path d="M15 0H20L5 15.0002L0 20.0002V15.0002L15 0Z" fill="#ff6f91"/></g><g transform="translate(636.84,365.4) scale(2.088) rotate(0)"><path d="M5 0H10L5 5L0 10V5L5 0Z" fill="#c3cdf7"/><path d="M20 15V20H15L20 15Z" fill="#c3cdf7"/><path d="M20 5V10L15 15L10 20H5L20 5Z" fill="#c3cdf7"/><path d="M15 0H20L5 15.0002L0 20.0002V15.0002L15 0Z" fill="#c3cdf7"/></g><g transform="translate(678.6,365.4) scale(2.088) rotate(0)"><rect width="20" height="10" fill="#ccd4f8"/></g><rect x="10.440000000000001" y="428.04" width="83.52000000000001" height="83.52000000000001" fill="#ffffff"/><g transform="translate(10.44,428.04) scale(2.088) rotate(0)"><path d="M5 0H10L5 5L0 10V5L5 0Z" fill="#ffccd8"/><path d="M20 15V20H15L20 15Z" fill="#ffccd8"/><path d="M20 5V10L15 15L10 20H5L20 5Z" fill="#ffccd8"/><path d="M15 0H20L5 15.0002L0 20.0002V15.0002L15 0Z" fill="#ffccd8"/></g><g transform="translate(52.2,428.04) scale(2.088) rotate(0)"><rect width="20" height="10" fill="#3759e5"/></g><g transform="translate(10.44,469.8) scale(2.088) rotate(0)"><path d="M5 0H10L5 5L0 10V5L5 0Z" fill="#899df0"/><path d="M20 15V20H15L20 15Z" fill="#899df0"/><path d="M20 5V10L15 15L10 20H5L20 5Z" fill="#899df0"/><path d="M15 0H20L5 15.0002L0 20.0002V15.0002L15 0Z" fill="#899df0"/></g><rect x="114.84" y="428.04" width="83.52000000000001" height="83.52000000000001" fill="#ffffff"/><g transform="translate(114.84,428.04) scale(2.088) rotate(0)"><path d="M10 0H20L0 20V10L10 0Z" fill="#294ee3"/><path d="M20 10V20H10L20 10Z" fill="#294ee3"/></g><g transform="translate(114.84,469.8) scale(2.088) rotate(0)"><path d="M10 0H20L0 20V10L10 0Z" fill="#6b84ec"/><path d="M20 10V20H10L20 10Z" fill="#6b84ec"/></g><g transform="translate(156.6,469.8) scale(2.088) rotate(0)"><path d="M5 0H10L5 5L0 10V5L5 0Z" fill="#ff6b8e"/><path d="M20 15V20H15L20 15Z" fill="#ff6b8e"/><path d="M20 5V10L15 15L10 20H5L20 5Z" fill="#ff6b8e"/><path d="M15 0H20L5 15.0002L0 20.0002V15.0002L15 0Z" fill="#ff6b8e"/></g><rect x="219.24" y="428.04" width="83.52000000000001" height="83.52000000000001" fill="#ffffff"/><g transform="translate(261,428.04) scale(2.088) rotate(0)"><path d="M5 0H10L5 5L0 10V5L5 0Z" fill="#ebeffc"/><path d="M20 15V20H15L20 15Z" fill="#ebeffc"/><path d="M20 5V10L15 15L10 20H5L20 5Z" fill="#ebeffc"/><path d="M15 0H20L5 15.0002L0 20.0002V15.0002L15 0Z" fill="#ebeffc"/></g><g transform="translate(219.24,469.8) scale(2.088) rotate(0)"><rect width="20" height="10" fill="#c2cdf7"/></g><rect x="323.64000000000004" y="428.04" width="83.52000000000001" height="83.52000000000001" fill="#ffffff"/><g transform="translate(365.4,469.8) scale(2.088) rotate(0)"><rect width="20" height="10" fill="#ff7696"/></g><rect x="532.44" y="428.04" width="83.52000000000001" height="83.52000000000001" fill="#ffffff"/><g transform="translate(532.44,428.04) scale(2.088) rotate(0)"><path d="M10 0H20L0 20V10L10 0Z" fill="#fbfcff"/><path d="M20 10V20H10L20 10Z" fill="#fbfcff"/></g><g transform="translate(574.2,428.04) scale(2.088) rotate(0)"><path d="M5 0H10L5 5L0 10V5L5 0Z" fill="#5c78ea"/><path d="M20 15V20H15L20 15Z" fill="#5c78ea"/><path d="M20 5V10L15 15L10 20H5L20 5Z" fill="#5c78ea"/><path d="M15 0H20L5 15.0002L0 20.0002V15.0002L15 0Z" fill="#5c78ea"/></g><g transform="translate(532.44,469.8) scale(2.088) rotate(0)"><path d="M10 0H20L0 20V10L10 0Z" fill="#f7f8fe"/><path d="M20 10V20H10L20 10Z" fill="#f7f8fe"/></g><g transform="translate(574.2,469.8) scale(2.088) rotate(0)"><path d="M10 0H20L0 20V10L10 0Z" fill="#ff90ab"/><path d="M20 10V20H10L20 10Z" fill="#ff90ab"/></g><rect x="636.8400000000001" y="428.04" width="83.52000000000001" height="83.52000000000001" fill="#ffffff"/><g transform="translate(636.84,428.04) scale(2.088) rotate(0)"><rect width="20" height="2" fill="#ff3d6b"/><rect y="4" width="20" height="2" fill="#ff3d6b"/><rect y="8" width="20" height="2" fill="#ff3d6b"/><rect y="12" width="20" height="2" fill="#ff3d6b"/><rect y="16" width="20" height="2" fill="#ff3d6b"/></g><g transform="translate(678.6,428.04) scale(2.088) rotate(0)"><path d="M10 0H20L0 20V10L10 0Z" fill="#2c50e4"/><path d="M20 10V20H10L20 10Z" fill="#2c50e4"/></g></g></svg>